<?xml version="1.0" encoding="utf-8"?>
<!-- Generator: Adobe Illustrator 27.5.0, SVG Export Plug-In . SVG Version: 6.00 Build 0)  -->
<svg version="1.1" id="Layer_1" xmlns="http://www.w3.org/2000/svg" xmlns:xlink="http://www.w3.org/1999/xlink" x="0px" y="0px"
	 viewBox="0 0 612 792" style="enable-background:new 0 0 612 792;" xml:space="preserve">
<style type="text/css">
	.st0{fill:none;stroke:#000000;stroke-width:14;stroke-miterlimit:10;}
	.st1{fill:none;stroke:#000000;stroke-miterlimit:10;}
	.st2{fill:none;stroke:#EC008C;stroke-miterlimit:10;}
	.st3{fill:none;stroke:#000000;stroke-width:2;stroke-miterlimit:10;}
</style>
<g>
	<g>
		<g>
			<path d="M267.77,435.46c12.36,3.58,17.25,7.27,17.25,13.71c0,5.36-4.21,9.44-11.67,11.03l7.27,6.1
				c11.08-3.28,16.5-10.19,16.5-17.85c0-10.13-7.88-15.76-23.37-20.26c-12.64-3.68-18.21-6.86-18.21-13.3
				c0-4.71,4.76-10.34,17.25-10.34c8.29,0,14.4,2.05,17.39,3.28l3.26-7.27c-4.08-1.74-10.87-3.38-20.24-3.38
				c-17.8,0-29.62,7.98-29.62,18.73C243.58,425.63,252.82,431.46,267.77,435.46z"/>
		</g>
		<g>
			<path class="st0" d="M267.77,435.46c12.36,3.58,17.25,7.27,17.25,13.71c0,5.36-4.21,9.44-11.67,11.03l7.27,6.1
				c11.08-3.28,16.5-10.19,16.5-17.85c0-10.13-7.88-15.76-23.37-20.26c-12.64-3.68-18.21-6.86-18.21-13.3
				c0-4.71,4.76-10.34,17.25-10.34c8.29,0,14.4,2.05,17.39,3.28l3.26-7.27c-4.08-1.74-10.87-3.38-20.24-3.38
				c-17.8,0-29.62,7.98-29.62,18.73C243.58,425.63,252.82,431.46,267.77,435.46z"/>
		</g>
	</g>
	<g>
		<g>
			<path d="M357.99,436.91c-5.43-3.68-13.99-5.73-25.68-5.73c-9.51,0-16.98,0.61-22.69,1.33v58.14l11.82,9.92v-27.54
				c2.72,0.51,5.98,0.61,9.51,0.61c11.55,0,21.74-2.56,27.99-7.57c4.62-3.58,7.07-8.49,7.07-14.74
				C366,445.2,363.01,440.18,357.99,436.91z M331.22,466.48c-3.94,0-7.2-0.21-9.78-0.72v-26.81c2.04-0.41,5.98-0.72,11.14-0.72
				c13.04,0,21.6,4.4,21.6,13.51C354.18,461.26,345.49,466.48,331.22,466.48z"/>
		</g>
		<g>
			<path class="st0" d="M357.99,436.91c-5.43-3.68-13.99-5.73-25.68-5.73c-9.51,0-16.98,0.61-22.69,1.33v58.14l11.82,9.92v-27.54
				c2.72,0.51,5.98,0.61,9.51,0.61c11.55,0,21.74-2.56,27.99-7.57c4.62-3.58,7.07-8.49,7.07-14.74
				C366,445.2,363.01,440.18,357.99,436.91z M331.22,466.48c-3.94,0-7.2-0.21-9.78-0.72v-26.81c2.04-0.41,5.98-0.72,11.14-0.72
				c13.04,0,21.6,4.4,21.6,13.51C354.18,461.26,345.49,466.48,331.22,466.48z"/>
		</g>
	</g>
	<path class="st1" d="M302.64,473.11"/>
	<path class="st2" d="M296.83,465.28"/>
	<path class="st3" d="M303.7,436.88c0,0.01,0,0.01-0.01,0.02"/>
	<path class="st3" d="M303.86,426.89c0.12,0.44,0.23,0.89,0.32,1.36c0.69,3.68,0.04,6.85-0.48,8.63"/>
	<path class="st3" d="M303.85,426.86c0,0.01,0.01,0.02,0.01,0.03"/>
	<path class="st3" d="M293.81,415.8c1.96,0.93,8.45,4.28,9.88,10.72c0.16,0.72,0.27,1.53,0.28,2.42"/>
	<path class="st3" d="M301.96,397.66c2.26,0.96,21.15,9.35,23.67,26.52c0.37,2.54,0.47,5.86-0.39,9.81"/>
</g>
</svg>
