<?xml version="1.0" encoding="utf-8"?>
<!-- Generator: Adobe Illustrator 27.5.0, SVG Export Plug-In . SVG Version: 6.00 Build 0)  -->
<svg version="1.1" id="Layer_1" xmlns="http://www.w3.org/2000/svg" xmlns:xlink="http://www.w3.org/1999/xlink" x="0px" y="0px"
	 viewBox="0 0 180 190.9" style="enable-background:new 0 0 180 190.9;" xml:space="preserve">
<style type="text/css">
	.st0{fill:none;stroke:#000000;stroke-width:14;stroke-miterlimit:10;}
	.st1{fill:none;stroke:#000000;stroke-miterlimit:10;}
	.st2{fill:none;stroke:#EC008C;stroke-miterlimit:10;}
	.st3{fill:none;stroke:#000000;stroke-width:2;stroke-miterlimit:10;}
</style>
<g>
	<g>
		<path d="M53.2,78.8c12.4,3.6,17.2,7.3,17.2,13.7c0,5.4-4.2,9.4-11.7,11l7.3,6.1c11.1-3.3,16.5-10.2,16.5-17.9
			c0-10.1-7.9-15.8-23.4-20.3c-12.6-3.7-18.2-6.9-18.2-13.3c0-4.7,4.8-10.3,17.2-10.3c8.3,0,14.4,2,17.4,3.3l3.3-7.3
			c-4.1-1.7-10.9-3.4-20.2-3.4c-17.8,0-29.6,8-29.6,18.7C29,68.9,38.2,74.8,53.2,78.8z"/>
	</g>
	<g>
		<path class="st0" d="M53.2,78.8c12.4,3.6,17.2,7.3,17.2,13.7c0,5.4-4.2,9.4-11.7,11l7.3,6.1c11.1-3.3,16.5-10.2,16.5-17.9
			c0-10.1-7.9-15.8-23.4-20.3c-12.6-3.7-18.2-6.9-18.2-13.3c0-4.7,4.8-10.3,17.2-10.3c8.3,0,14.4,2,17.4,3.3l3.3-7.3
			c-4.1-1.7-10.9-3.4-20.2-3.4c-17.8,0-29.6,8-29.6,18.7C29,68.9,38.2,74.8,53.2,78.8z"/>
	</g>
</g>
<g>
	<g>
		<path d="M143.4,80.2c-5.4-3.7-14-5.7-25.7-5.7c-9.5,0-17,0.6-22.7,1.3V134l11.8,9.9v-27.5c2.7,0.5,6,0.6,9.5,0.6
			c11.5,0,21.7-2.6,28-7.6c4.6-3.6,7.1-8.5,7.1-14.7C151.4,88.5,148.4,83.5,143.4,80.2z M116.6,109.8c-3.9,0-7.2-0.2-9.8-0.7V82.3
			c2-0.4,6-0.7,11.1-0.7c13,0,21.6,4.4,21.6,13.5C139.6,104.6,130.9,109.8,116.6,109.8z"/>
	</g>
	<g>
		<path class="st0" d="M143.4,80.2c-5.4-3.7-14-5.7-25.7-5.7c-9.5,0-17,0.6-22.7,1.3V134l11.8,9.9v-27.5c2.7,0.5,6,0.6,9.5,0.6
			c11.5,0,21.7-2.6,28-7.6c4.6-3.6,7.1-8.5,7.1-14.7C151.4,88.5,148.4,83.5,143.4,80.2z M116.6,109.8c-3.9,0-7.2-0.2-9.8-0.7V82.3
			c2-0.4,6-0.7,11.1-0.7c13,0,21.6,4.4,21.6,13.5C139.6,104.6,130.9,109.8,116.6,109.8z"/>
	</g>
</g>
<path class="st1" d="M88,116.4"/>
<path class="st2" d="M82.2,108.6"/>
<path class="st3" d="M89.1,80.2C89.1,80.2,89.1,80.2,89.1,80.2"/>
<path class="st3" d="M89.3,70.2c0.1,0.4,0.2,0.9,0.3,1.4c0.7,3.7,0,6.9-0.5,8.6"/>
<path class="st3" d="M89.2,70.2C89.2,70.2,89.3,70.2,89.2,70.2"/>
<path class="st3" d="M79.2,59.1c2,0.9,8.5,4.3,9.9,10.7c0.2,0.7,0.3,1.5,0.3,2.4"/>
<path class="st3" d="M87.4,41c2.3,1,21.1,9.4,23.7,26.5c0.4,2.5,0.5,5.9-0.4,9.8"/>
</svg>
