<?xml version="1.0" encoding="utf-8"?>
<!-- Generator: Adobe Illustrator 27.5.0, SVG Export Plug-In . SVG Version: 6.00 Build 0)  -->
<svg version="1.1" id="Layer_1" xmlns="http://www.w3.org/2000/svg" xmlns:xlink="http://www.w3.org/1999/xlink" x="0px" y="0px"
	 viewBox="0 0 150 150" style="enable-background:new 0 0 150 150;" xml:space="preserve">
<style type="text/css">
	.st0{fill:#FFFFFF;}
	.st1{fill:#FFFFFF;stroke:#FFFFFF;stroke-width:14;stroke-miterlimit:10;}
	.st2{fill:#FFFFFF;stroke:#FFFFFF;stroke-miterlimit:10;}
	.st3{fill:#FFFFFF;stroke:#FFFFFF;stroke-width:2;stroke-miterlimit:10;}
	.st4{fill:none;stroke:#FFFFFF;stroke-width:2;stroke-miterlimit:10;}
</style>
<g>
	<path class="st0" d="M36.9,63.3c12.4,3.6,17.2,7.3,17.2,13.7c0,5.4-4.2,9.4-11.7,11l7.3,6.1c11.1-3.3,16.5-10.2,16.5-17.9
		c0-10.1-7.9-15.8-23.4-20.3C30.2,52.2,24.6,49,24.6,42.6c0-4.7,4.8-10.3,17.2-10.3c8.3,0,14.4,2,17.4,3.3l3.3-7.3
		c-4.1-1.7-10.9-3.4-20.2-3.4c-17.8,0-29.6,8-29.6,18.7C12.7,53.4,21.9,59.3,36.9,63.3z"/>
</g>
<g>
	<path class="st1" d="M36.9,63.3c12.4,3.6,17.2,7.3,17.2,13.7c0,5.4-4.2,9.4-11.7,11l7.3,6.1c11.1-3.3,16.5-10.2,16.5-17.9
		c0-10.1-7.9-15.8-23.4-20.3C30.2,52.2,24.6,49,24.6,42.6c0-4.7,4.8-10.3,17.2-10.3c8.3,0,14.4,2,17.4,3.3l3.3-7.3
		c-4.1-1.7-10.9-3.4-20.2-3.4c-17.8,0-29.6,8-29.6,18.7C12.7,53.4,21.9,59.3,36.9,63.3z"/>
</g>
<g>
	<path class="st0" d="M127.1,64.7c-5.4-3.7-14-5.7-25.7-5.7c-9.5,0-17,0.6-22.7,1.3v58.2l11.8,9.9v-27.5c2.7,0.5,6,0.6,9.5,0.6
		c11.5,0,21.7-2.6,28-7.6c4.6-3.6,7.1-8.5,7.1-14.7C135.1,73,132.1,68,127.1,64.7z M100.3,94.3c-3.9,0-7.2-0.2-9.8-0.7V66.8
		c2-0.4,6-0.7,11.1-0.7c13,0,21.6,4.4,21.6,13.5C123.3,89.1,114.6,94.3,100.3,94.3z"/>
</g>
<g>
	<path class="st1" d="M127.1,64.7c-5.4-3.7-14-5.7-25.7-5.7c-9.5,0-17,0.6-22.7,1.3v58.2l11.8,9.9v-27.5c2.7,0.5,6,0.6,9.5,0.6
		c11.5,0,21.7-2.6,28-7.6c4.6-3.6,7.1-8.5,7.1-14.7C135.1,73,132.1,68,127.1,64.7z M100.3,94.3c-3.9,0-7.2-0.2-9.8-0.7V66.8
		c2-0.4,6-0.7,11.1-0.7c13,0,21.6,4.4,21.6,13.5C123.3,89.1,114.6,94.3,100.3,94.3z"/>
</g>
<path class="st2" d="M71.7,100.9"/>
<path class="st2" d="M65.9,93.1"/>
<path class="st3" d="M72.8,64.7L72.8,64.7"/>
<path class="st3" d="M72.9,54.7C72.9,54.7,73,54.7,72.9,54.7"/>
<path class="st4" d="M62.9,43.7c2,0.9,8.5,4.3,9.9,10.7c0.2,0.7,0.3,1.5,0.3,2.4"/>
<path class="st4" d="M71.3,25.4c2.3,1,21.1,9.4,23.7,26.5c0.4,2.5,0.5,5.9-0.4,9.8"/>
<path class="st3" d="M73.6,54c0.1,0.4,0.2,0.9,0.3,1.4c0.7,3.7,0,6.9-0.5,8.6"/>
<rect x="51.9" y="37.9" class="st4" width="3.3" height="1.3"/>
<rect x="60.3" y="36.7" class="st4" width="3.2" height="2.5"/>
</svg>
