<?xml version="1.0" encoding="utf-8"?>
<!-- Generator: Adobe Illustrator 27.5.0, SVG Export Plug-In . SVG Version: 6.00 Build 0)  -->
<svg version="1.1" id="Layer_1" xmlns="http://www.w3.org/2000/svg" xmlns:xlink="http://www.w3.org/1999/xlink" x="0px" y="0px"
	 viewBox="0 0 150 150" style="enable-background:new 0 0 150 150;" xml:space="preserve">
<style type="text/css">
	.st0{fill:#FFFFFF;}
	.st1{fill:#FFFFFF;stroke:#FFFFFF;stroke-width:14;stroke-miterlimit:10;}
	.st2{fill:#FFFFFF;stroke:#FFFFFF;stroke-miterlimit:10;}
	.st3{fill:#FFFFFF;stroke:#FFFFFF;stroke-width:2;stroke-miterlimit:10;}
	.st4{fill:none;stroke:#FFFFFF;stroke-width:2;stroke-miterlimit:10;}
</style>
<circle cx="75" cy="75" r="75"/>
<g>
	<path class="st0" d="M43.6,63.3C56,66.9,60.8,70.6,60.8,77c0,5.4-4.2,9.4-11.7,11l7.3,6.1c11.1-3.3,16.5-10.2,16.5-17.9
		c0-10.1-7.9-15.8-23.4-20.3C36.9,52.2,31.3,49,31.3,42.6c0-4.7,4.8-10.3,17.2-10.3c8.3,0,14.4,2,17.4,3.3l3.3-7.3
		c-4.1-1.7-10.9-3.4-20.2-3.4c-17.8,0-29.6,8-29.6,18.7C19.4,53.4,28.6,59.3,43.6,63.3z"/>
</g>
<g>
	<path class="st1" d="M43.6,63.3C56,66.9,60.8,70.6,60.8,77c0,5.4-4.2,9.4-11.7,11l7.3,6.1c11.1-3.3,16.5-10.2,16.5-17.9
		c0-10.1-7.9-15.8-23.4-20.3C36.9,52.2,31.3,49,31.3,42.6c0-4.7,4.8-10.3,17.2-10.3c8.3,0,14.4,2,17.4,3.3l3.3-7.3
		c-4.1-1.7-10.9-3.4-20.2-3.4c-17.8,0-29.6,8-29.6,18.7C19.4,53.4,28.6,59.3,43.6,63.3z"/>
</g>
<g>
	<path class="st0" d="M133.8,64.7c-5.4-3.7-14-5.7-25.7-5.7c-9.5,0-17,0.6-22.7,1.3v58.2l11.8,9.9v-27.5c2.7,0.5,6,0.6,9.5,0.6
		c11.5,0,21.7-2.6,28-7.6c4.6-3.6,7.1-8.5,7.1-14.7S138.8,68,133.8,64.7z M107,94.3c-3.9,0-7.2-0.2-9.8-0.7V66.8
		c2-0.4,6-0.7,11.1-0.7c13,0,21.6,4.4,21.6,13.5C130,89.1,121.3,94.3,107,94.3z"/>
</g>
<g>
	<path class="st1" d="M133.8,64.7c-5.4-3.7-14-5.7-25.7-5.7c-9.5,0-17,0.6-22.7,1.3v58.2l11.8,9.9v-27.5c2.7,0.5,6,0.6,9.5,0.6
		c11.5,0,21.7-2.6,28-7.6c4.6-3.6,7.1-8.5,7.1-14.7S138.8,68,133.8,64.7z M107,94.3c-3.9,0-7.2-0.2-9.8-0.7V66.8
		c2-0.4,6-0.7,11.1-0.7c13,0,21.6,4.4,21.6,13.5C130,89.1,121.3,94.3,107,94.3z"/>
</g>
<path class="st2" d="M78.4,100.9"/>
<path class="st2" d="M72.6,93.1"/>
<path class="st3" d="M79.5,64.7L79.5,64.7"/>
<path class="st3" d="M79.6,54.7C79.6,54.7,79.7,54.7,79.6,54.7"/>
<path class="st4" d="M69.6,43.7c2,0.9,8.5,4.3,9.9,10.7c0.2,0.7,0.3,1.5,0.3,2.4"/>
<path class="st4" d="M78,25.4c2.3,1,21.1,9.4,23.7,26.5c0.4,2.5,0.5,5.9-0.4,9.8"/>
<path class="st3" d="M80.3,54c0.1,0.4,0.2,0.9,0.3,1.4c0.7,3.7,0,6.9-0.5,8.6"/>
<rect x="58.6" y="37.9" class="st3" width="3.3" height="1.3"/>
<rect x="67" y="36.7" class="st4" width="3.2" height="2.5"/>
</svg>
